<svg width="58" height="71" viewBox="0 0 58 71" fill="none" xmlns="http://www.w3.org/2000/svg">
<mask id="mask0_3_457" style="mask-type:alpha" maskUnits="userSpaceOnUse" x="0" y="0" width="46" height="71">
<path d="M0.333313 70.9695L9.9575 70.9695C29.3711 70.9695 45.1089 55.2317 45.1089 35.8181L45.1089 23.0545C45.1089 10.69 35.0855 0.666682 22.7211 0.666681C10.3567 0.66668 0.333318 10.69 0.333317 23.0545L0.333313 70.9695Z" fill="#C4C4C4"/>
</mask>
<g mask="url(#mask0_3_457)">
<rect x="-38.2664" y="-44.7263" width="102.932" height="154.399" fill="url(#paint0_linear_3_457)"/>
</g>
<mask id="mask1_3_457" style="mask-type:alpha" maskUnits="userSpaceOnUse" x="0" y="20" width="58" height="51">
<path d="M0.333313 70.9695L32.2938 70.9695C46.3069 70.9695 57.6666 59.6097 57.6666 45.5967C57.6666 31.5836 46.3068 20.2238 32.2938 20.2238L29 20.2238C13.1678 20.2238 0.333316 33.0583 0.333315 48.8905L0.333313 70.9695Z" fill="#C4C4C4"/>
</mask>
<g mask="url(#mask1_3_457)">
<rect x="-85.9238" y="-2.21565" width="143.591" height="95.7271" fill="url(#paint1_linear_3_457)"/>
</g>
<defs>
<linearGradient id="paint0_linear_3_457" x1="13.1998" y1="-44.7263" x2="13.1998" y2="109.672" gradientUnits="userSpaceOnUse">
<stop stop-color="white"/>
<stop offset="1" stop-color="white" stop-opacity="0"/>
</linearGradient>
<linearGradient id="paint1_linear_3_457" x1="-14.1284" y1="-2.21565" x2="-14.1284" y2="93.5115" gradientUnits="userSpaceOnUse">
<stop stop-color="white"/>
<stop offset="1" stop-color="white" stop-opacity="0"/>
</linearGradient>
</defs>
</svg>
